<svg xmlns="http://www.w3.org/2000/svg" width="27" height="20" viewBox="0 0 27 20" fill="none">
  <path d="M13.0495 0C12.0294 0 11.0511 0.405303 10.3298 1.12642C9.60849 1.84772 9.20337 2.82604 9.20337 3.84611C9.20337 4.86617 9.60848 5.84444 10.3298 6.56579C11.0511 7.28714 12.0294 7.69241 13.0495 7.69241C14.0695 7.69241 15.0478 7.2871 15.7692 6.56579C16.4905 5.84447 16.8956 4.86617 16.8956 3.84611C16.8885 2.82835 16.4809 1.85425 15.7611 1.13452C15.0415 0.414737 14.0673 0.00716245 13.0495 4.90311e-05L13.0495 0ZM13.0495 6.07143C12.4665 6.07143 11.9075 5.83974 11.4953 5.42754C11.0833 5.01553 10.8516 4.45634 10.8516 3.87358C10.8516 3.29062 11.0833 2.73165 11.4953 2.31942C11.9075 1.90722 12.4665 1.67573 13.0495 1.67573C13.6324 1.67573 14.1914 1.90722 14.6036 2.31942C15.0156 2.73162 15.2473 3.29062 15.2473 3.87358C15.24 4.45173 15.0053 5.00363 14.5939 5.40988C14.1826 5.81614 13.6277 6.04381 13.0495 6.04381L13.0495 6.07143Z" fill="#111111"/>
  <path d="M20.1925 9.64291C21.0886 9.64291 21.948 9.28705 22.5818 8.65331C23.2155 8.01958 23.5716 7.16008 23.5716 6.26384C23.5716 5.36755 23.2155 4.5081 22.5818 3.87437C21.948 3.24083 21.0885 2.88477 20.1925 2.88477C19.2962 2.88477 18.4368 3.24082 17.803 3.87437C17.1693 4.5081 16.8132 5.3676 16.8132 6.26384C16.8132 7.16013 17.1693 8.01958 17.803 8.65331C18.4368 9.28704 19.2963 9.64291 20.1925 9.64291ZM20.1925 4.53302C20.6515 4.53302 21.0916 4.71546 21.4163 5.04008C21.7409 5.36452 21.9231 5.8049 21.9231 6.26384C21.9231 6.7228 21.7409 7.16317 21.4163 7.48759C21.0916 7.81222 20.6514 7.99466 20.1925 7.99466C19.7333 7.99466 19.2932 7.81222 18.9685 7.48759C18.6439 7.16316 18.4617 6.72278 18.4617 6.26384C18.4617 5.80487 18.6439 5.3645 18.9685 5.04008C19.2932 4.71546 19.7334 4.53302 20.1925 4.53302Z" fill="#111111"/>
  <path d="M7.7395e-05 16.0986V19.9997H26.099V16.0986C26.1091 14.1116 25.1193 12.2526 23.465 11.1516C21.8108 10.0507 19.714 9.85521 17.8846 10.6315C16.602 9.34986 14.8628 8.62988 13.0495 8.62988C11.2363 8.62988 9.49704 9.34986 8.21441 10.6315C6.38509 9.85521 4.28824 10.0507 2.63405 11.1516C0.979669 12.2525 -0.0100776 14.1116 7.7395e-05 16.0986ZM20.1924 11.813C21.3265 11.813 22.4138 12.2652 23.2131 13.0699C24.0124 13.8743 24.4579 14.9646 24.4505 16.0986V18.3789H19.9176V15.5216C19.9174 14.2932 19.5853 13.0877 18.956 12.0327C19.3551 11.8992 19.7718 11.825 20.1924 11.8129V11.813ZM13.0495 10.3019C14.4339 10.3019 15.7615 10.8519 16.7404 11.8308C17.7194 12.8096 18.2692 14.1373 18.2692 15.5216V18.3513H7.82965V15.5216C7.82965 14.1372 8.37944 12.8096 9.3585 11.8308C10.3374 10.8519 11.665 10.3019 13.0493 10.3019H13.0495ZM5.90667 11.813C6.32597 11.8162 6.74257 11.881 7.14308 12.0052C6.50896 13.0684 6.17669 14.2839 6.18145 15.5217V18.3513H1.64858V16.0987C1.6411 14.9646 2.08665 13.8744 2.88597 13.0699C3.68527 12.2653 4.77259 11.813 5.90667 11.813V11.813Z" fill="#111111"/>
  <path d="M5.90666 2.88477C5.01056 2.88477 4.15112 3.24082 3.51738 3.87437C2.88365 4.5081 2.52759 5.3676 2.52759 6.26384C2.52759 7.16013 2.88364 8.01958 3.51738 8.65331C4.15112 9.28704 5.01061 9.64291 5.90666 9.64291C6.80295 9.64291 7.6624 9.28705 8.29613 8.65331C8.92986 8.01957 9.28593 7.16008 9.28593 6.26384C9.28593 5.36755 8.92987 4.5081 8.29613 3.87437C7.6624 3.24083 6.8029 2.88477 5.90666 2.88477ZM5.90666 7.99466C5.4477 7.99466 5.00752 7.81222 4.68291 7.48759C4.35828 7.16316 4.17604 6.72278 4.17604 6.26384C4.17604 5.80487 4.35828 5.3645 4.68291 5.04008C5.00753 4.71546 5.44772 4.53302 5.90666 4.53302C6.36581 4.53302 6.80599 4.71546 7.13061 5.04008C7.45524 5.36452 7.63748 5.8049 7.63748 6.26384C7.63748 6.7228 7.45524 7.16317 7.13061 7.48759C6.80598 7.81222 6.36579 7.99466 5.90666 7.99466Z" fill="#111111"/>
</svg>