<svg xmlns="http://www.w3.org/2000/svg" width="19" height="20" viewBox="0 0 19 20" fill="none">
  <path d="M17.2727 7.27273H12.7273V0.909091C12.7273 0.667985 12.6315 0.436754 12.461 0.266267C12.2905 0.0957789 12.0593 0 11.8182 0H0.909091C0.667985 0 0.436754 0.0957789 0.266266 0.266267C0.0957789 0.436754 0 0.667985 0 0.909091V15.4545C0 16.0515 0.117572 16.6425 0.346002 17.194C0.574433 17.7455 0.909248 18.2466 1.33133 18.6687C2.18377 19.5211 3.33992 20 4.54545 20H14.5455C15.5099 20 16.4348 19.6169 17.1168 18.9349C17.7987 18.253 18.1818 17.3281 18.1818 16.3636V8.18182C18.1818 7.94071 18.086 7.70948 17.9156 7.53899C17.7451 7.36851 17.5138 7.27273 17.2727 7.27273ZM1.81818 15.4545V1.81818H10.9091V16.3636C10.9118 17.0045 11.0877 17.6327 11.4182 18.1818H4.54545C3.82214 18.1818 3.12844 17.8945 2.61698 17.383C2.10552 16.8716 1.81818 16.1779 1.81818 15.4545ZM16.3636 16.3636C16.3636 16.8458 16.1721 17.3083 15.8311 17.6493C15.4901 17.9903 15.0277 18.1818 14.5455 18.1818C14.0632 18.1818 13.6008 17.9903 13.2598 17.6493C12.9188 17.3083 12.7273 16.8458 12.7273 16.3636V9.09091H16.3636V16.3636ZM3.63636 7.27273H9.09091V9.09091H3.63636V7.27273ZM3.63636 10.9091H9.09091V12.7273H3.63636V10.9091Z" fill="#111111"/>
</svg>