<svg xmlns="http://www.w3.org/2000/svg" width="36" height="21" viewBox="0 0 36 21" fill="none">
  <path d="M35.2799 9.36035H0.720068C0.447257 9.36035 0.198 9.51434 0.0760081 9.75832C-0.0459835 10.0023 -0.0196165 10.2941 0.144211 10.5121L0.187453 10.5704C2.17307 13.217 5.02564 15.1548 8.21957 16.0267C9.76292 16.4478 10.8 17.7606 10.8 19.292V19.4403C10.8 19.8383 11.1224 20.1603 11.52 20.1603H24.48C24.8776 20.1603 25.2 19.8383 25.2 19.4403V19.292C25.2 17.7598 26.2367 16.4478 27.7801 16.0267C30.9744 15.1548 33.8269 13.217 35.8125 10.5697L35.8558 10.5121C36.0196 10.2941 36.046 10.0023 35.924 9.75832C35.802 9.51434 35.5527 9.36035 35.2799 9.36035ZM27.4011 14.6373C25.4489 15.1703 24.0328 16.805 23.7951 18.7203H12.2049C11.9672 16.805 10.5511 15.1703 8.5989 14.6373C6.17243 13.9749 3.96427 12.632 2.25569 10.8003H33.7443C32.0357 12.632 29.8276 13.9749 27.4011 14.6373Z" fill="black"/>
  <path d="M14.3999 4.31961V7.1996C14.3999 7.59756 14.7223 7.91959 15.1199 7.91959C15.5175 7.91959 15.8399 7.59756 15.8399 7.1996V4.31961C15.8399 3.92164 15.5175 3.59961 15.1199 3.59961C14.7223 3.59961 14.3999 3.92164 14.3999 4.31961Z" fill="black"/>
  <path d="M20.1599 0.719997V3.59999C20.1599 3.99795 20.4823 4.31998 20.8799 4.31998C21.2775 4.31998 21.5999 3.99795 21.5999 3.59999V0.719997C21.5999 0.32203 21.2775 0 20.8799 0C20.4823 0 20.1599 0.32203 20.1599 0.719997Z" fill="black"/>
  <path d="M17.28 0.719997V6.47997C17.28 6.87794 17.6024 7.19997 18 7.19997C18.3976 7.19997 18.72 6.87794 18.72 6.47997V0.719997C18.72 0.32203 18.3976 0 18 0C17.6024 0 17.28 0.32203 17.28 0.719997Z" fill="black"/>
</svg>