<svg xmlns="http://www.w3.org/2000/svg" width="18" height="20" viewBox="0 0 18 20" fill="none">
  <path d="M6.43746 19.9767C6.88065 19.9767 7.25387 19.6035 7.25387 19.1603L7.25371 13.9358C7.25371 13.8658 7.3004 13.8191 7.37036 13.8191H10.5891C10.659 13.8191 10.7057 13.8658 10.7057 13.9358V19.1836C10.7057 19.6268 11.0789 20 11.5221 20L15.2771 19.9998C16.7465 19.9998 17.9592 18.787 17.9592 17.3177L17.9593 8.38477C17.9593 7.77839 17.7028 7.1953 17.283 6.75216L17.2598 6.72889L10.2856 0.524812C9.56262 -0.174937 8.37299 -0.174937 7.65 0.524812L0.699566 6.75221L0.676301 6.77548C0.233111 7.19522 0 7.80176 0 8.40809V17.3177C0 18.7871 1.21287 19.9998 2.68213 19.9998H6.43723L6.43746 19.9767ZM1.6328 17.2945V8.38493C1.6328 8.22159 1.70276 8.05841 1.81941 7.94174L8.76985 1.73766L8.79311 1.7144C8.90976 1.62117 9.07294 1.62117 9.16632 1.7144L9.18959 1.73766L16.14 7.94174C16.2567 8.05839 16.3266 8.22157 16.3266 8.38493V17.2945C16.3266 17.8776 15.8602 18.3441 15.2771 18.3441H12.3384V13.9126C12.3384 12.9563 11.5454 12.1633 10.5891 12.1633L7.37041 12.1631C6.4141 12.1631 5.62114 12.9561 5.62114 13.9124V18.3439L2.68241 18.3441C2.09932 18.3441 1.63289 17.8776 1.63289 17.2945H1.6328Z" fill="#EF7F1B"/>
</svg>