<svg xmlns="http://www.w3.org/2000/svg" width="20" height="32" viewBox="0 0 20 32" fill="none">
  <path d="M13.7819 24.5699H5.87352C5.46446 24.5699 5.19176 24.2972 5.19176 23.8881V18.3659C4.10095 17.616 3.41919 16.3888 3.41919 15.0253C3.41919 12.7755 5.25993 11.0029 7.44156 11.0029C8.32784 11.0029 9.14595 11.2756 9.82771 11.7529C10.5095 11.2756 11.3276 11.0029 12.2139 11.0029C14.4637 11.0029 16.2362 12.8437 16.2362 15.0253C16.2362 16.3888 15.5545 17.616 14.4637 18.3659V23.8881C14.4637 24.229 14.191 24.5699 13.7819 24.5699ZM6.55527 23.2064H13.1001V17.9569C13.1001 17.6842 13.2365 17.4796 13.441 17.3433C14.3273 16.866 14.8727 15.9798 14.8727 14.9571C14.8727 13.4573 13.6456 12.2983 12.2139 12.2983C11.4639 12.2983 10.8503 12.571 10.3049 13.1164C10.0322 13.3891 9.62318 13.3891 9.35048 13.1164C8.87325 12.6391 8.19149 12.2983 7.44156 12.2983C5.94169 12.2983 4.7827 13.5254 4.7827 14.9571C4.7827 15.9798 5.32811 16.866 6.2144 17.3433C6.41892 17.4796 6.55527 17.6842 6.55527 17.9569V23.2064Z" fill="white"/>
  <path d="M7.44156 19.0469C5.19176 19.0469 3.41919 17.2062 3.41919 15.0245C3.41919 14.6155 3.69189 14.3428 4.10095 14.3428C4.51 14.3428 4.7827 14.6155 4.7827 15.0245C4.7827 16.5244 6.00987 17.6834 7.44156 17.6834C7.91879 17.6834 8.4642 17.547 8.87325 17.2743C9.21413 17.0698 9.62318 17.138 9.82771 17.4789C10.0322 17.8197 9.96406 18.2288 9.62318 18.4333C8.94143 18.7742 8.19149 19.0469 7.44156 19.0469Z" fill="white"/>
  <path d="M18.9634 32.0005H0.692256C0.283201 32.0005 0.010498 31.7278 0.010498 31.3187V6.02551C0.010498 5.61645 0.283201 5.34375 0.692256 5.34375H18.9634C19.3724 5.34375 19.6451 5.61645 19.6451 6.02551V31.3187C19.6451 31.7278 19.3724 32.0005 18.9634 32.0005ZM1.37401 30.637H18.2816V6.70727H1.37401V30.637Z" fill="white"/>
  <path d="M0.692275 6.70679C0.351396 6.70679 0.0786927 6.50226 0.0105169 6.16139C-0.0576589 5.75233 0.215044 5.41145 0.555923 5.34328C0.624098 5.34328 9.96418 3.36618 12.8957 0.230093C13.1003 0.0255659 13.373 -0.0426099 13.6457 0.0255659C13.9184 0.0937417 14.0547 0.366445 14.0547 0.639148V6.02503C14.0547 6.43409 13.782 6.70679 13.373 6.70679C12.9639 6.70679 12.6912 6.43409 12.6912 6.02503V2.13901C8.80519 5.0024 1.1695 6.57044 0.828626 6.63862C0.76045 6.63862 0.76045 6.70679 0.692275 6.70679Z" fill="white"/>
</svg>